# Blender v2.79 (sub 0) OBJ File: ''
# www.blender.org
mtllib untitled.mtl
o Plane
v 1.543350 0.751732 -0.000000
v 2.003514 3.073842 0.000000
v 1.119857 3.354478 0.000000
v 1.487417 3.661873 0.000000
v 1.643943 2.469723 0.000000
v 1.809389 1.378876 -0.000000
v 0.963553 0.455861 -0.000000
v 0.590980 0.359604 -0.000000
v 0.372030 3.211856 0.000000
v 0.790587 3.180788 0.000000
v 1.037657 2.464469 0.000000
v 0.342101 2.393010 0.000000
v 0.450905 1.323661 -0.000000
v 1.015132 1.395347 -0.000000
v 1.478565 3.435060 0.000000
v 1.201298 3.216156 0.000000
v 1.491450 2.495420 0.000000
v 1.827142 3.041741 0.000000
v 1.656189 1.411105 -0.000000
v 1.450828 0.905754 -0.000000
v 0.812330 3.014059 0.000000
v 0.338326 3.052930 0.000000
v 0.548020 0.515314 -0.000000
v 0.939756 0.616523 -0.000000
v 1.543350 0.751732 0.421251
v 2.003514 3.073842 0.421251
v 1.119857 3.354478 0.421251
v 1.487417 3.661873 0.421251
v 1.643943 2.469723 0.421251
v 1.809389 1.378876 0.421251
v 0.963553 0.455861 0.421251
v 0.590980 0.359604 0.421251
v 0.372030 3.211856 0.421251
v 0.790587 3.180788 0.421251
v 1.478565 3.435060 0.421251
v 1.201298 3.216156 0.421251
v 1.491450 2.495420 0.421251
v 1.827142 3.041741 0.421251
v 1.656189 1.411105 0.421251
v 1.450828 0.905754 0.421251
v 0.812330 3.014059 0.421251
v 0.338326 3.052930 0.421251
v 0.548020 0.515314 0.421251
v 0.939756 0.616523 0.421251
v 1.491450 2.495420 0.218055
v 1.201298 3.216156 0.218055
v 1.478565 3.435060 0.218055
v 1.827142 3.041741 0.218055
v 1.656189 1.411105 0.218055
v 1.450828 0.905754 0.218055
v 0.450905 1.323661 0.218055
v 1.015132 1.395347 0.218055
v 1.037657 2.464469 0.218055
v 0.342101 2.393010 0.218055
v 0.812330 3.014059 0.218055
v 0.338326 3.052930 0.218055
v 0.548020 0.515314 0.218055
v 0.939756 0.616523 0.218055
v 1.406020 2.040497 -0.000000
v 1.026394 1.929908 -0.000000
v 0.396503 1.858335 -0.000000
v 1.558867 2.011534 -0.000000
v 1.406020 2.040497 0.421251
v 1.558867 2.011534 0.421251
v 1.406020 2.040497 0.218055
v 1.026394 1.929908 0.218055
v 0.396503 1.858335 0.218055
v -1.543350 0.751732 -0.000000
v -2.003514 3.073842 0.000000
v -1.119857 3.354478 0.000000
v -1.487417 3.661873 0.000000
v -1.643943 2.469723 0.000000
v -1.809389 1.378876 -0.000000
v -0.963553 0.455861 -0.000000
v -0.590980 0.359604 -0.000000
v -0.372030 3.211856 0.000000
v -0.790587 3.180788 0.000000
v -1.037657 2.464469 0.000000
v -0.342101 2.393010 0.000000
v -0.450905 1.323661 -0.000000
v -1.015132 1.395347 -0.000000
v 0.000000 0.122078 -0.000000
v 0.000000 3.409250 0.000000
v 0.000000 2.301960 0.000000
v 0.000000 1.212019 -0.000000
v -1.478565 3.435060 0.000000
v -1.201298 3.216156 0.000000
v -1.491450 2.495420 0.000000
v -1.827142 3.041741 0.000000
v -1.656189 1.411105 -0.000000
v -1.450828 0.905754 -0.000000
v -0.812330 3.014059 0.000000
v -0.338326 3.052930 0.000000
v -0.548020 0.515314 -0.000000
v -0.939756 0.616523 -0.000000
v 0.000000 0.295055 -0.000000
v 0.000000 3.237850 0.000000
v -1.543350 0.751732 0.421251
v -2.003514 3.073842 0.421251
v -1.119857 3.354478 0.421251
v -1.487417 3.661873 0.421251
v -1.643943 2.469723 0.421251
v -1.809389 1.378876 0.421251
v -0.963553 0.455861 0.421251
v -0.590980 0.359604 0.421251
v -0.372030 3.211856 0.421251
v -0.790587 3.180788 0.421251
v 0.000000 0.122078 0.421251
v 0.000000 3.409250 0.421251
v -1.478565 3.435060 0.421251
v -1.201298 3.216156 0.421251
v -1.491450 2.495420 0.421251
v -1.827142 3.041741 0.421251
v -1.656189 1.411105 0.421251
v -1.450828 0.905754 0.421251
v -0.812330 3.014059 0.421251
v -0.338326 3.052930 0.421251
v -0.548020 0.515314 0.421251
v -0.939756 0.616523 0.421251
v 0.000000 0.295055 0.421251
v 0.000000 3.237850 0.421251
v -1.491450 2.495420 0.218055
v -1.201298 3.216156 0.218055
v -1.478565 3.435060 0.218055
v 0.000000 2.301960 0.218055
v 0.000000 3.237850 0.218055
v -1.827142 3.041741 0.218055
v -1.656189 1.411105 0.218055
v 0.000000 1.212019 0.218055
v -1.450828 0.905754 0.218055
v 0.000000 0.295055 0.218055
v -0.450905 1.323661 0.218055
v -1.015132 1.395347 0.218055
v -1.037657 2.464469 0.218055
v -0.342101 2.393010 0.218055
v -0.812330 3.014059 0.218055
v -0.338326 3.052930 0.218055
v -0.548020 0.515314 0.218055
v -0.939756 0.616523 0.218055
v -1.406020 2.040497 -0.000000
v 0.000000 1.756989 -0.000000
v -1.026394 1.929908 -0.000000
v -0.396503 1.858335 -0.000000
v -1.558867 2.011534 -0.000000
v -1.406020 2.040497 0.421251
v -1.558867 2.011534 0.421251
v -1.406020 2.040497 0.218055
v 0.000000 1.756989 0.218055
v -1.026394 1.929908 0.218055
v -0.396503 1.858335 0.218055
v 0.000000 -11.699985 -0.694837
v -0.168530 -11.699985 -0.649679
v -0.291902 -11.699985 -0.526307
v -0.337060 -11.699985 -0.357777
v -0.291902 -11.699985 -0.189247
v -0.168530 -11.699985 -0.065875
v -0.000000 -11.699985 -0.020718
v 0.168530 -11.699985 -0.065875
v 0.291902 -11.699985 -0.189247
v 0.337060 -11.699985 -0.357777
v 0.291902 -11.699985 -0.526307
v 0.168530 -11.699985 -0.649679
v 0.000000 4.073506 -0.694837
v -0.168530 4.073506 -0.649679
v -0.291902 4.073506 -0.526307
v -0.337060 4.073506 -0.357777
v -0.291902 4.073506 -0.189247
v -0.168530 4.073506 -0.065875
v -0.000000 4.073506 -0.020718
v 0.168530 4.073506 -0.065875
v 0.291902 4.073506 -0.189247
v 0.337060 4.073506 -0.357777
v 0.291902 4.073506 -0.526307
v 0.168530 4.073506 -0.649679
v 0.000000 -11.699985 -0.595403
v -0.118813 -11.699985 -0.563567
v -0.205790 -11.699985 -0.476590
v -0.237625 -11.699985 -0.357777
v -0.205790 -11.699985 -0.238964
v -0.118813 -11.699985 -0.151987
v -0.000000 -11.699985 -0.120152
v 0.118813 -11.699985 -0.151987
v 0.205790 -11.699985 -0.238964
v 0.237625 -11.699985 -0.357777
v 0.205790 -11.699985 -0.476590
v 0.118813 -11.699985 -0.563567
v 0.000000 4.073506 -0.595403
v -0.118813 4.073506 -0.563567
v -0.205790 4.073506 -0.476590
v -0.237625 4.073506 -0.357777
v -0.205790 4.073506 -0.238964
v -0.118813 4.073506 -0.151987
v -0.000000 4.073506 -0.120152
v 0.118813 4.073506 -0.151987
v 0.205790 4.073506 -0.238964
v 0.237625 4.073506 -0.357777
v 0.205790 4.073506 -0.476590
v 0.118813 4.073506 -0.563567
v -0.000000 3.755712 -0.020718
v 0.168530 3.755712 -0.065875
v -0.337060 3.755712 -0.357777
v -0.291902 3.755712 -0.189247
v 0.291902 3.755712 -0.526307
v 0.168530 3.755712 -0.649679
v 0.000000 3.755712 -0.694837
v -0.168530 3.755712 -0.649679
v 0.291902 3.755712 -0.189247
v -0.168530 3.755712 -0.065875
v -0.291902 3.755712 -0.526307
v 0.337060 3.755712 -0.357777
v 0.168530 -11.163666 -0.065875
v -0.291902 -11.163666 -0.189247
v 0.168530 -11.163666 -0.649679
v -0.168530 -11.163666 -0.649679
v 0.291902 -11.163666 -0.189247
v -0.168530 -11.163666 -0.065875
v -0.291902 -11.163666 -0.526307
v 0.337060 -11.163666 -0.357777
v -0.000000 -11.163666 -0.020718
v -0.337060 -11.163666 -0.357777
v 0.291902 -11.163666 -0.526307
v 0.000000 -11.163666 -0.694837
vt 0.600676 0.499959
vt 0.600646 0.587060
vt 0.569165 0.569839
vt 0.568834 0.508422
vt 0.488845 0.585003
vt 0.463033 0.605367
vt 0.430605 0.568750
vt 0.461864 0.517916
vt 0.505164 0.465301
vt 0.504099 0.515050
vt 0.469830 0.475581
vt 0.600693 0.449241
vt 0.563789 0.458660
vt 0.600740 0.313182
vt 0.600711 0.398522
vt 0.558743 0.408897
vt 0.549730 0.333664
vt 0.525051 0.566207
vt 0.513269 0.343070
vt 0.506229 0.415551
vt 0.446567 0.416997
vt 0.465696 0.369972
vt 0.496420 0.597879
vt 0.462202 0.626475
vt 0.414189 0.571732
vt 0.447673 0.515520
vt 0.455606 0.472880
vt 0.432310 0.413992
vt 0.457090 0.355634
vt 0.566023 0.584629
vt 0.527070 0.581724
vt 0.511060 0.328117
vt 0.545737 0.319171
vt 0.600746 0.297084
vt 0.600640 0.603012
vt 0.525682 0.118420
vt 0.564053 0.137523
vt 0.557584 0.156580
vt 0.516530 0.137720
vt 0.953750 0.562319
vt 0.952485 0.592852
vt 0.937624 0.591466
vt 0.938976 0.561501
vt 0.490984 0.099083
vt 0.484066 0.121253
vt 0.947122 0.639000
vt 0.934354 0.682520
vt 0.918465 0.675044
vt 0.931996 0.635241
vt 0.607265 0.149004
vt 0.603351 0.167823
vt 0.957687 0.516907
vt 0.941894 0.517673
vt 0.434383 0.102105
vt 0.434359 0.118889
vt 0.903958 0.728966
vt 0.892555 0.760669
vt 0.877871 0.756349
vt 0.889441 0.722302
vt 0.647781 0.154203
vt 0.641043 0.175381
vt 0.496882 0.080716
vt 0.531820 0.105151
vt 0.880847 0.806974
vt 0.902473 0.766176
vt 0.887938 0.817803
vt 0.944907 0.684791
vt 0.915652 0.730807
vt 0.425352 0.090168
vt 0.960664 0.637688
vt 0.568939 0.120742
vt 0.611543 0.134413
vt 0.965416 0.562347
vt 0.965094 0.590960
vt 0.970178 0.516297
vt 0.652600 0.139071
vt 0.992086 0.643390
vt 0.976109 0.697267
vt 0.586533 0.078857
vt 0.624816 0.093225
vt 0.998382 0.563803
vt 0.996884 0.592974
vt 0.501681 0.042927
vt 0.551243 0.062213
vt 1.000166 0.514822
vt 0.932786 0.778585
vt 0.916502 0.826835
vt 0.947695 0.747010
vt 0.663936 0.103468
vt 0.422787 0.047690
vt 0.598038 0.854955
vt 0.629877 0.863429
vt 0.629526 0.924846
vt 0.598038 0.942056
vt 0.709840 0.940037
vt 0.736844 0.872960
vt 0.768086 0.923804
vt 0.735645 0.960409
vt 0.693562 0.820329
vt 0.728893 0.830621
vt 0.694610 0.870079
vt 0.598038 0.804236
vt 0.634940 0.813668
vt 0.598038 0.668177
vt 0.649041 0.688676
vt 0.640003 0.763907
vt 0.598038 0.753517
vt 0.673640 0.921228
vt 0.685499 0.698096
vt 0.692514 0.770579
vt 0.733063 0.725014
vt 0.752176 0.772045
vt 0.865997 0.803212
vt 0.632511 0.508444
vt 0.632139 0.569861
vt 0.712448 0.585080
vt 0.739475 0.518012
vt 0.770699 0.568868
vt 0.738245 0.605462
vt 0.696211 0.465367
vt 0.731539 0.475671
vt 0.697242 0.515117
vt 0.637591 0.458685
vt 0.651736 0.333699
vt 0.642672 0.408926
vt 0.676254 0.566259
vt 0.688190 0.343131
vt 0.695180 0.415616
vt 0.735745 0.370065
vt 0.754841 0.417103
vt 0.739062 0.626571
vt 0.704864 0.597951
vt 0.753668 0.515626
vt 0.787113 0.571861
vt 0.769100 0.414109
vt 0.745765 0.472980
vt 0.744361 0.355734
vt 0.674225 0.581775
vt 0.635270 0.584653
vt 0.655739 0.319209
vt 0.690410 0.328179
vt 0.767484 0.195903
vt 0.763832 0.216457
vt 0.719866 0.208216
vt 0.725597 0.189062
vt 0.949368 0.472131
vt 0.934767 0.474369
vt 0.930553 0.444746
vt 0.945163 0.441939
vt 0.805625 0.201445
vt 0.798759 0.221371
vt 0.935382 0.396714
vt 0.920764 0.401895
vt 0.903533 0.363810
vt 0.918499 0.354882
vt 0.676151 0.190977
vt 0.683829 0.173394
vt 0.848032 0.232697
vt 0.835241 0.244739
vt 0.883647 0.312137
vt 0.870307 0.320168
vt 0.855644 0.288653
vt 0.868650 0.282670
vt 0.770315 0.181790
vt 0.812092 0.183456
vt 0.856967 0.224959
vt 0.877197 0.276182
vt 0.894948 0.309027
vt 0.928727 0.351583
vt 0.948925 0.396699
vt 0.688788 0.159036
vt 0.731359 0.172639
vt 0.957857 0.442594
vt 0.960955 0.470972
vt 0.979495 0.387991
vt 0.958429 0.336231
vt 0.741410 0.128083
vt 0.701789 0.117689
vt 0.993564 0.466297
vt 0.989196 0.437488
vt 0.832806 0.149300
vt 0.780096 0.135101
vt 0.907992 0.259200
vt 0.885574 0.206282
vt 0.925620 0.289699
vt 0.566551 0.924846
vt 0.566200 0.863429
vt 0.486237 0.940037
vt 0.460432 0.960409
vt 0.427991 0.923804
vt 0.459233 0.872960
vt 0.502515 0.820329
vt 0.501467 0.870079
vt 0.467184 0.830621
vt 0.561137 0.813668
vt 0.556074 0.763907
vt 0.547036 0.688676
vt 0.522437 0.921228
vt 0.510578 0.698096
vt 0.503563 0.770579
vt 0.443901 0.772045
vt 0.463014 0.725014
vt 0.083189 0.029361
vt 0.083186 0.000099
vt 0.099248 0.000100
vt 0.099252 0.029362
vt 0.131378 0.029365
vt 0.131372 0.000101
vt 0.147434 0.000100
vt 0.147442 0.029366
vt 0.018939 0.029347
vt 0.018946 0.000089
vt 0.035004 0.000093
vt 0.035001 0.029352
vt 0.179574 0.029366
vt 0.179561 0.000092
vt 0.195636 0.000084
vt 0.195650 0.029363
vt 0.067126 0.029359
vt 0.067124 0.000097
vt 0.115315 0.029364
vt 0.115310 0.000101
vt 0.002876 0.029339
vt 0.002890 0.000083
vt 0.163507 0.029366
vt 0.163497 0.000097
vt 0.051064 0.029356
vt 0.051063 0.000095
vt 0.296852 0.844521
vt 0.283328 0.844541
vt 0.280031 0.009502
vt 0.293573 0.009527
vt 0.256014 0.844301
vt 0.242061 0.843788
vt 0.239579 0.009928
vt 0.253047 0.009641
vt 0.350380 0.841787
vt 0.337229 0.843424
vt 0.334989 0.010747
vt 0.349108 0.012710
vt 0.213774 0.841815
vt 0.201341 0.837823
vt 0.200332 0.015553
vt 0.213020 0.012273
vt 0.310346 0.844415
vt 0.307201 0.009636
vt 0.269738 0.844488
vt 0.266531 0.009532
vt 0.363065 0.838508
vt 0.362161 0.016585
vt 0.227817 0.842465
vt 0.226171 0.010634
vt 0.323820 0.844129
vt 0.320985 0.009945
vt 0.338797 0.852692
vt 0.353154 0.850665
vt 0.242284 0.853900
vt 0.256579 0.854011
vt 0.292896 0.000116
vt 0.279331 0.000158
vt 0.367578 0.845433
vt 0.270404 0.853976
vt 0.306582 0.000083
vt 0.210245 0.003393
vt 0.195817 0.008628
vt 0.284028 0.853921
vt 0.320559 0.000124
vt 0.224603 0.001367
vt 0.297586 0.853857
vt 0.335175 0.000510
vt 0.238545 0.000605
vt 0.311163 0.853742
vt 0.351077 0.002173
vt 0.195815 0.845628
vt 0.211553 0.851451
vt 0.252231 0.000322
vt 0.324854 0.853455
vt 0.367957 0.008179
vt 0.226950 0.853155
vt 0.265799 0.000212
vt 0.032224 0.950505
vt 0.048289 0.950505
vt 0.144666 0.950516
vt 0.160728 0.950521
vt 0.096479 0.950507
vt 0.112541 0.950509
vt 0.064353 0.950505
vt 0.176791 0.950527
vt 0.000083 0.950510
vt 0.016158 0.950507
vt 0.128604 0.950512
vt 0.080416 0.950505
vt 0.192855 0.950535
vt 0.080424 0.999891
vt 0.096483 0.999891
vt 0.128599 0.999894
vt 0.144657 0.999897
vt 0.016184 0.999908
vt 0.032245 0.999901
vt 0.176769 0.999908
vt 0.192824 0.999917
vt 0.064365 0.999893
vt 0.112541 0.999892
vt 0.000111 0.999917
vt 0.160713 0.999902
vt 0.048305 0.999896
vn -0.0000 0.0000 -1.0000
vn 0.5428 -0.8399 0.0000
vn 0.1974 -0.9803 0.0000
vn -0.3122 0.9500 0.0000
vn -0.3745 0.9272 0.0000
vn 0.6197 -0.7849 0.0000
vn -0.9264 0.3765 0.0000
vn -0.2869 -0.9580 0.0000
vn -0.3729 0.9279 0.0000
vn -0.7484 -0.6633 0.0000
vn -0.4925 0.8703 0.0000
vn -0.9954 -0.0962 0.0000
vn -0.9329 0.3600 0.0000
vn -0.4796 -0.8775 0.0000
vn 0.0000 -0.0000 1.0000
vn 0.9206 -0.3905 0.0000
vn -0.2042 0.9789 0.0000
vn 0.2773 0.9608 0.0000
vn 0.3122 -0.9500 0.0000
vn 0.3545 -0.9351 0.0000
vn 0.4545 -0.8907 0.0000
vn -0.6415 0.7671 0.0000
vn -0.5571 0.8304 0.0000
vn 0.3729 -0.9279 0.0000
vn 0.9358 -0.3525 0.0000
vn 0.8593 -0.5115 0.0000
vn 0.9953 0.0966 0.0000
vn 0.4687 0.8834 0.0000
vn 0.7516 0.6596 0.0000
vn -0.8520 0.5235 0.0000
vn 0.9298 0.3682 0.0000
vn -0.9293 -0.3694 0.0000
vn -0.5428 -0.8399 0.0000
vn -0.1974 -0.9803 0.0000
vn 0.3122 0.9500 0.0000
vn 0.3745 0.9272 0.0000
vn -0.6197 -0.7849 0.0000
vn 0.9264 0.3765 0.0000
vn 0.2869 -0.9580 0.0000
vn 0.3729 0.9279 0.0000
vn 0.7484 -0.6633 0.0000
vn 0.4925 0.8703 0.0000
vn 0.9954 -0.0962 0.0000
vn 0.9329 0.3600 0.0000
vn 0.4796 -0.8775 0.0000
vn -0.9206 -0.3905 0.0000
vn 0.2042 0.9789 0.0000
vn -0.2773 0.9608 0.0000
vn -0.3122 -0.9500 0.0000
vn -0.3545 -0.9351 0.0000
vn -0.4545 -0.8907 0.0000
vn 0.6415 0.7671 0.0000
vn 0.5571 0.8304 0.0000
vn -0.3729 -0.9279 0.0000
vn -0.9358 -0.3525 0.0000
vn -0.8593 -0.5115 0.0000
vn -0.9953 0.0966 0.0000
vn -0.4687 0.8834 0.0000
vn -0.7516 0.6596 0.0000
vn 0.8520 0.5235 0.0000
vn -0.9298 0.3682 0.0000
vn 0.9293 -0.3694 0.0000
vn 0.5000 -0.0000 0.8660
vn -0.8660 -0.0000 0.5000
vn -1.0000 -0.0000 0.0000
vn 0.5000 -0.0000 -0.8660
vn 0.8660 0.0000 -0.5000
vn -0.5000 0.0000 -0.8660
vn 0.8660 0.0000 0.5000
vn -0.5000 -0.0000 0.8660
vn -0.8660 0.0000 -0.5000
vn 1.0000 -0.0000 0.0000
vn 0.0000 -1.0000 0.0000
vn 0.0000 1.0000 -0.0000
usemtl None
s 1
f 84/1/1 97/2/1 22/3/1 12/4/1
f 16/5/1 15/6/1 18/7/1 17/8/1
f 60/9/1 11/10/1 17/8/1 59/11/1
f 141/12/1 84/1/1 12/4/1 61/13/1
f 96/14/1 85/15/1 13/16/1 23/17/1
f 11/10/1 21/18/1 16/5/1 17/8/1
f 60/9/1 61/13/1 12/4/1 11/10/1
f 11/10/1 12/4/1 22/3/1 21/18/1
f 24/19/1 23/17/1 13/16/1 14/20/1
f 24/19/1 14/20/1 19/21/1 20/22/1
f 16/5/1 3/23/1 4/24/1 15/6/1
f 18/7/1 2/25/1 5/26/1 17/8/1
f 59/11/1 62/27/1 6/28/1 19/21/1
f 15/6/1 4/24/1 2/25/1 18/7/1
f 19/21/1 6/28/1 1/29/1 20/22/1
f 22/3/1 9/30/1 10/31/1 21/18/1
f 24/19/1 7/32/1 8/33/1 23/17/1
f 20/22/1 1/29/1 7/32/1 24/19/1
f 23/17/1 8/33/1 82/34/1 96/14/1
f 21/18/1 10/31/1 3/23/1 16/5/1
f 97/2/1 83/35/1 9/30/1 22/3/1
f 36/36/2 41/37/3 55/38/3 46/39/2
f 43/40/4 44/41/5 58/42/5 57/43/4
f 35/44/6 36/36/2 46/39/2 47/45/6
f 40/46/7 39/47/7 49/48/7 50/49/7
f 41/37/3 42/50/8 56/51/8 55/38/3
f 120/52/9 43/40/4 57/43/4 131/53/9
f 38/54/10 35/44/10 47/45/10 48/55/10
f 44/41/5 40/46/11 50/49/11 58/42/5
f 63/56/12 37/57/13 45/58/13 65/59/12
f 42/50/8 121/60/14 126/61/14 56/51/8
f 36/36/15 35/44/15 28/62/15 27/63/15
f 38/64/15 37/57/15 29/65/15 26/66/15
f 63/56/15 39/47/15 30/67/15 64/68/15
f 35/44/15 38/54/15 26/69/15 28/62/15
f 39/47/15 40/46/15 25/70/15 30/67/15
f 42/50/15 41/37/15 34/71/15 33/72/15
f 44/41/15 43/40/15 32/73/15 31/74/15
f 40/46/15 44/41/15 31/74/15 25/70/15
f 43/40/15 120/52/15 108/75/15 32/73/15
f 41/37/15 36/36/15 27/63/15 34/71/15
f 121/60/15 42/50/15 33/72/15 109/76/15
f 1/77/16 6/78/16 30/67/16 25/70/16
f 10/79/17 9/80/18 33/72/18 34/71/17
f 8/81/19 7/82/20 31/74/20 32/73/19
f 7/82/20 1/77/21 25/70/21 31/74/20
f 4/83/22 3/84/23 27/63/23 28/62/22
f 82/85/24 8/81/19 32/73/19 108/75/24
f 5/86/25 2/87/26 26/66/26 29/65/25
f 3/84/23 10/79/17 34/71/17 27/63/23
f 62/88/27 5/86/25 29/65/25 64/68/27
f 9/80/18 83/89/28 109/76/28 33/72/18
f 2/90/29 4/83/29 28/62/29 26/69/29
f 125/91/15 54/92/15 56/93/15 126/94/15
f 46/95/15 45/96/15 48/97/15 47/98/15
f 66/99/15 65/100/15 45/96/15 53/101/15
f 148/102/15 67/103/15 54/92/15 125/91/15
f 131/104/15 57/105/15 51/106/15 129/107/15
f 53/101/15 45/96/15 46/95/15 55/108/15
f 66/99/15 53/101/15 54/92/15 67/103/15
f 53/101/15 55/108/15 56/93/15 54/92/15
f 58/109/15 52/110/15 51/106/15 57/105/15
f 58/109/15 50/111/15 49/112/15 52/110/15
f 37/57/13 38/64/30 48/113/30 45/58/13
f 52/110/15 66/99/15 67/103/15 51/106/15
f 129/107/15 51/106/15 67/103/15 148/102/15
f 52/110/15 49/112/15 65/100/15 66/99/15
f 6/78/31 62/88/27 64/68/27 30/67/31
f 37/57/15 63/56/15 64/68/15 29/65/15
f 39/47/32 63/56/12 65/59/12 49/48/32
f 17/8/1 5/26/1 62/27/1 59/11/1
f 14/20/1 13/16/1 61/13/1 60/9/1
f 85/15/1 141/12/1 61/13/1 13/16/1
f 14/20/1 60/9/1 59/11/1 19/21/1
f 84/1/1 79/114/1 93/115/1 97/2/1
f 87/116/1 88/117/1 89/118/1 86/119/1
f 142/120/1 140/121/1 88/117/1 78/122/1
f 141/12/1 143/123/1 79/114/1 84/1/1
f 96/14/1 94/124/1 80/125/1 85/15/1
f 78/122/1 88/117/1 87/116/1 92/126/1
f 142/120/1 78/122/1 79/114/1 143/123/1
f 78/122/1 92/126/1 93/115/1 79/114/1
f 95/127/1 81/128/1 80/125/1 94/124/1
f 95/127/1 91/129/1 90/130/1 81/128/1
f 87/116/1 86/119/1 71/131/1 70/132/1
f 89/118/1 88/117/1 72/133/1 69/134/1
f 140/121/1 90/130/1 73/135/1 144/136/1
f 86/119/1 89/118/1 69/134/1 71/131/1
f 90/130/1 91/129/1 68/137/1 73/135/1
f 93/115/1 92/126/1 77/138/1 76/139/1
f 95/127/1 94/124/1 75/140/1 74/141/1
f 91/129/1 95/127/1 74/141/1 68/137/1
f 94/124/1 96/14/1 82/34/1 75/140/1
f 92/126/1 87/116/1 70/132/1 77/138/1
f 97/2/1 93/115/1 76/139/1 83/35/1
f 111/142/33 123/143/33 136/144/34 116/145/34
f 118/146/35 138/147/35 139/148/36 119/149/36
f 110/150/37 124/151/37 123/143/33 111/142/33
f 115/152/38 130/153/38 128/154/38 114/155/38
f 116/145/34 136/144/34 137/156/39 117/157/39
f 120/52/40 131/53/40 138/147/35 118/146/35
f 113/158/41 127/159/41 124/151/41 110/150/41
f 119/149/36 139/148/36 130/153/42 115/152/42
f 145/160/43 147/161/43 122/162/44 112/163/44
f 117/157/39 137/156/39 126/61/45 121/60/45
f 111/142/15 100/164/15 101/165/15 110/150/15
f 113/158/15 99/166/15 102/167/15 112/163/15
f 145/160/15 146/168/15 103/169/15 114/155/15
f 110/150/15 101/165/15 99/166/15 113/158/15
f 114/155/15 103/169/15 98/170/15 115/152/15
f 117/157/15 106/171/15 107/172/15 116/145/15
f 119/149/15 104/173/15 105/174/15 118/146/15
f 115/152/15 98/170/15 104/173/15 119/149/15
f 118/146/15 105/174/15 108/75/15 120/52/15
f 116/145/15 107/172/15 100/164/15 111/142/15
f 121/60/15 109/76/15 106/171/15 117/157/15
f 68/175/46 98/170/46 103/169/46 73/176/46
f 77/177/47 107/172/47 106/171/48 76/178/48
f 75/179/49 105/174/49 104/173/50 74/180/50
f 74/180/50 104/173/50 98/170/51 68/175/51
f 71/181/52 101/165/52 100/164/53 70/182/53
f 82/85/54 108/75/54 105/174/49 75/179/49
f 72/183/55 102/167/55 99/166/56 69/184/56
f 70/182/53 100/164/53 107/172/47 77/177/47
f 144/185/57 146/168/57 102/167/55 72/183/55
f 76/178/48 106/171/48 109/76/58 83/89/58
f 69/184/59 99/166/59 101/165/59 71/181/59
f 125/91/15 126/94/15 137/186/15 135/187/15
f 123/188/15 124/189/15 127/190/15 122/191/15
f 149/192/15 134/193/15 122/191/15 147/194/15
f 148/102/15 125/91/15 135/187/15 150/195/15
f 131/104/15 129/107/15 132/196/15 138/197/15
f 134/193/15 136/198/15 123/188/15 122/191/15
f 149/192/15 150/195/15 135/187/15 134/193/15
f 134/193/15 135/187/15 137/186/15 136/198/15
f 139/199/15 138/197/15 132/196/15 133/200/15
f 139/199/15 133/200/15 128/201/15 130/202/15
f 112/163/44 122/162/44 127/159/60 113/158/60
f 133/200/15 132/196/15 150/195/15 149/192/15
f 129/107/15 148/102/15 150/195/15 132/196/15
f 133/200/15 149/192/15 147/194/15 128/201/15
f 73/176/61 103/169/61 146/168/57 144/185/57
f 112/163/15 102/167/15 146/168/15 145/160/15
f 114/155/62 128/154/62 147/161/43 145/160/43
f 88/117/1 140/121/1 144/136/1 72/133/1
f 81/128/1 142/120/1 143/123/1 80/125/1
f 85/15/1 80/125/1 143/123/1 141/12/1
f 81/128/1 90/130/1 140/121/1 142/120/1
f 200/203/63 170/204/63 169/205/15 199/206/15
f 202/207/64 167/208/64 166/209/65 201/210/65
f 204/211/66 174/212/66 173/213/67 203/214/67
f 206/215/68 164/216/68 163/217/1 205/218/1
f 207/219/69 171/220/69 170/204/63 200/203/63
f 208/221/70 168/222/70 167/208/64 202/207/64
f 205/223/1 163/224/1 174/212/66 204/211/66
f 209/225/71 165/226/71 164/216/68 206/215/68
f 210/227/72 172/228/72 171/220/69 207/219/69
f 199/206/15 169/205/15 168/222/70 208/221/70
f 201/210/65 166/209/65 165/226/71 209/225/71
f 203/214/67 173/213/67 172/228/72 210/227/72
f 182/229/68 181/230/1 193/231/1 194/232/68
f 179/233/67 178/234/72 190/235/72 191/236/67
f 186/237/70 185/238/64 197/239/64 198/240/70
f 176/241/63 175/242/15 187/243/15 188/244/63
f 183/245/71 182/229/68 194/232/68 195/246/71
f 180/247/66 179/233/67 191/236/67 192/248/66
f 175/249/15 186/237/70 198/240/70 187/250/15
f 177/251/69 176/241/63 188/244/63 189/252/69
f 184/253/65 183/245/71 195/246/71 196/254/65
f 181/230/1 180/247/66 192/248/66 193/231/1
f 178/234/72 177/251/69 189/252/69 190/235/72
f 185/238/64 184/253/65 196/254/65 197/239/64
f 161/255/73 185/238/73 186/237/73 162/256/73
f 154/257/73 178/234/73 179/233/73 155/258/73
f 170/259/74 194/232/74 193/231/74 169/260/74
f 162/256/73 186/237/73 175/249/73 151/261/73
f 155/258/73 179/233/73 180/247/73 156/262/73
f 171/263/74 195/246/74 194/232/74 170/259/74
f 164/264/74 188/244/74 187/243/74 163/265/74
f 156/262/73 180/247/73 181/230/73 157/266/73
f 172/267/74 196/254/74 195/246/74 171/263/74
f 165/268/74 189/252/74 188/244/74 164/264/74
f 157/266/73 181/230/73 182/229/73 158/269/73
f 173/270/74 197/239/74 196/254/74 172/267/74
f 166/271/74 190/235/74 189/252/74 165/268/74
f 158/269/73 182/229/73 183/245/73 159/272/73
f 174/273/74 198/240/74 197/239/74 173/270/74
f 151/274/73 175/242/73 176/241/73 152/275/73
f 167/276/74 191/236/74 190/235/74 166/271/74
f 159/272/73 183/245/73 184/253/73 160/277/73
f 163/278/74 187/250/74 198/240/74 174/273/74
f 152/275/73 176/241/73 177/251/73 153/279/73
f 168/280/74 192/248/74 191/236/74 167/276/74
f 160/277/73 184/253/73 185/238/73 161/255/73
f 153/279/73 177/251/73 178/234/73 154/257/73
f 169/260/74 193/231/74 192/248/74 168/280/74
f 221/281/67 203/214/67 210/227/72 218/282/72
f 220/283/65 201/210/65 209/225/71 217/284/71
f 219/285/15 199/206/15 208/221/70 216/286/70
f 218/282/72 210/227/72 207/219/69 215/287/69
f 217/284/71 209/225/71 206/215/68 214/288/68
f 222/289/1 205/223/1 204/211/66 213/290/66
f 216/286/70 208/221/70 202/207/64 212/291/64
f 215/287/69 207/219/69 200/203/63 211/292/63
f 214/288/68 206/215/68 205/218/1 222/293/1
f 213/290/66 204/211/66 203/214/67 221/281/67
f 212/291/64 202/207/64 201/210/65 220/283/65
f 211/292/63 200/203/63 199/206/15 219/285/15
f 158/294/63 211/292/63 219/285/15 157/295/15
f 155/296/64 212/291/64 220/283/65 154/297/65
f 162/298/66 213/290/66 221/281/67 161/299/67
f 152/300/68 214/288/68 222/293/1 151/301/1
f 159/302/69 215/287/69 211/292/63 158/294/63
f 156/303/70 216/286/70 212/291/64 155/296/64
f 151/304/1 222/289/1 213/290/66 162/298/66
f 153/305/71 217/284/71 214/288/68 152/300/68
f 160/306/72 218/282/72 215/287/69 159/302/69
f 157/295/15 219/285/15 216/286/70 156/303/70
f 154/297/65 220/283/65 217/284/71 153/305/71
f 161/299/67 221/281/67 218/282/72 160/306/72
