# Blender v2.79 (sub 0) OBJ File: 'Rocks_River_Rough_Medium.blend'
# www.blender.org
mtllib 1.mtl
o Rock_River_Rough_Medium006_Rock_80_low_uv:Group60135
v 1.609869 0.057844 -2.442267
v 1.631914 0.041956 -2.436913
v 1.649473 0.195999 -2.074746
v 1.698553 0.164284 -2.068598
v 1.688704 0.093196 -2.405911
v 1.635540 0.089701 -2.404050
v 1.521579 0.091796 -2.180462
v 1.526021 0.119674 -2.191737
v 1.705690 0.188032 -2.334946
v 1.656379 0.005166 -2.406402
v 1.698209 -0.002971 -2.298511
v 1.588439 0.021735 -2.389890
v 1.856608 0.112697 -2.208731
v 1.792143 0.099664 -2.106784
v 1.650563 0.013674 -2.262125
v 1.886207 0.055677 -2.316628
v 1.567279 0.058331 -2.248136
v 1.552766 0.037697 -2.253498
v 1.570775 0.028809 -2.181301
v 1.595534 0.021528 -2.092568
v 1.742134 0.217547 -2.288744
v 1.856342 0.155053 -2.277367
v 1.803237 0.066263 -2.348948
v 1.753607 0.059767 -2.382812
v 1.742128 0.238455 -2.152318
v 1.794199 0.190594 -2.160375
v 1.775548 0.228570 -2.226012
v 1.675499 0.186385 -2.248457
v 1.730314 0.235151 -2.269001
v 1.681618 0.226829 -2.140220
v 1.603507 0.198448 -2.134468
v 1.597339 0.153147 -2.204592
v 1.586537 0.195513 -2.110851
v 1.555780 0.122187 -2.256137
v 1.684856 0.004322 -2.101223
v 1.602643 0.064732 -2.068180
v 1.545059 0.092950 -2.143665
v 1.570020 0.113363 -2.089305
v 1.701344 0.133894 -2.041108
v 1.644582 0.087661 -2.037719
v 1.720879 0.080117 -2.054489
v 1.780315 0.004771 -2.150666
v 1.774390 -0.000192 -2.315199
v 1.894975 0.044594 -2.305347
v 1.843352 0.026748 -2.338110
v 1.719975 0.010968 -2.422335
v 1.567204 0.041252 -2.365721
v 1.681711 0.148470 -2.356716
v 1.873014 0.047847 -2.233867
v 1.807415 0.032133 -2.155723
v 1.731598 0.181836 -2.068454
v 1.898151 0.078140 -2.303049
v 1.654796 0.140908 -2.328524
v 1.693763 0.183305 -2.282859
v 1.604900 0.102006 -2.290332
v 1.632769 0.166674 -2.295483
vt 0.620374 0.550220
vt 0.576226 0.412700
vt 0.710386 0.537945
vt 0.717271 0.148343
vt 0.489444 0.176607
vt 0.906326 0.124638
vt 0.789906 0.209036
vt 0.502093 0.078483
vt 0.314676 0.121836
vt 0.609079 0.018163
vt 0.371560 0.586598
vt 0.467179 0.771939
vt 0.318453 0.799999
vt 0.300174 0.612301
vt 0.493011 0.499606
vt 0.435833 0.546187
vt 0.423679 0.470443
vt 0.535415 0.623975
vt 0.306561 0.492112
vt 0.324069 0.319393
vt 0.374446 0.398475
vt 0.337759 0.290215
vt 0.208916 0.227107
vt 0.098753 0.358469
vt 0.052068 0.354121
vt 0.143605 0.228166
vt 0.578517 0.243994
vt 0.460628 0.206048
vt 0.349474 0.153362
vt 0.396416 0.335411
vt 0.448266 0.357290
vt 0.473500 0.266466
vt 0.481708 0.334037
vt 0.382717 0.205927
vt 0.532396 0.319525
vt 0.767620 0.601974
vt 0.669539 0.355567
vt 0.843460 0.359969
vt 0.860295 0.495651
vt 0.980349 0.074550
vt 0.976679 0.230816
vt 0.216684 0.728891
vt 0.221270 0.815380
vt 0.094960 0.747362
vt 0.141628 0.671059
vt 0.031155 0.576908
vt 0.070872 0.699002
vt 0.250906 0.634320
vt 0.799904 0.603814
vt 0.660286 0.399775
vt 0.468470 0.385092
vt 0.686029 0.652104
vt 0.371669 0.548253
vt 0.135590 0.473100
vt 0.159352 0.356898
vt 0.221214 0.553540
vt 0.291798 0.536044
vt 0.651252 0.721633
vt 0.554993 0.797740
vt 0.237358 0.340261
vt 0.894495 0.028148
vt 0.017842 0.648168
vt 0.977780 0.292960
vt 0.936930 0.410210
vt 0.222764 0.498270
vn 0.8765 0.2555 0.4079
vn 0.7316 -0.0201 0.6814
vn 0.8356 -0.3782 0.3985
vn -0.1822 -0.9833 -0.0051
vn -0.4831 -0.6994 0.5268
vn -0.1670 -0.9007 -0.4011
vn -0.1170 -0.9930 -0.0130
vn -0.5678 -0.8148 0.1175
vn -0.9779 -0.0975 0.1847
vn -0.8807 -0.4530 -0.1382
vn 0.3474 0.7230 -0.5972
vn 0.4476 0.3800 -0.8095
vn 0.4826 0.3888 -0.7848
vn -0.1910 0.7175 -0.6698
vn 0.7550 0.5210 0.3981
vn 0.5419 0.8388 -0.0531
vn 0.2393 0.9265 0.2903
vn 0.7399 0.5913 -0.3208
vn -0.4193 0.8631 -0.2816
vn -0.4616 0.8522 -0.2464
vn -0.2417 0.9449 0.2207
vn -0.6186 0.6992 0.3585
vn -0.9081 0.4030 -0.1136
vn -0.8199 0.3387 -0.4616
vn 0.0792 -0.8710 0.4848
vn -0.5119 -0.3321 0.7923
vn -0.8989 -0.1156 0.4227
vn -0.1021 0.6791 0.7270
vn 0.0926 0.6984 0.7097
vn -0.2328 -0.1825 0.9552
vn 0.2156 0.2018 0.9554
vn -0.7553 0.0704 0.6516
vn 0.4014 -0.3478 0.8473
vn 0.8234 -0.5136 -0.2415
vn 0.3913 -0.7941 0.4652
vn 0.1847 -0.9746 -0.1269
vn 0.5258 -0.5816 -0.6207
vn -0.0616 -0.1510 -0.9866
vn 0.3853 -0.5456 -0.7443
vn 0.2339 0.5482 -0.8029
vn -0.3612 0.7328 -0.5767
vn -0.9582 -0.0283 -0.2848
vn -0.3947 0.2920 -0.8712
vn -0.2878 0.7197 -0.6318
vn 0.5471 0.0503 -0.8356
vn 0.6546 -0.5174 0.5512
vn 0.3047 0.5847 0.7518
vn 0.8733 0.2749 -0.4023
vn -0.1268 0.9314 -0.3412
vn -0.7629 0.3196 -0.5621
vn -0.7806 0.3000 -0.5484
vn -0.6112 0.5330 -0.5850
vn -0.6132 0.7357 -0.2878
vn -0.6076 0.7516 -0.2570
vn -0.5504 -0.7324 -0.4009
vn -0.4123 0.7651 -0.4946
usemtl Rock_River_Rough_Medium006
s 1
f 13/1/1 14/2/2 49/3/3
f 15/4/4 20/5/5 10/6/6
f 10/6/6 11/7/7 15/4/4
f 19/8/8 7/9/9 18/10/10
f 21/11/11 23/12/12 24/13/13
f 24/13/13 9/14/14 21/11/11
f 26/15/15 27/16/16 25/17/17
f 22/18/18 27/16/16 26/15/15
f 28/19/19 31/20/20 30/21/21
f 33/22/22 31/20/20 8/23/23
f 17/24/24 18/25/10 7/26/9
f 19/8/8 10/6/6 20/5/5
f 11/7/7 35/27/25 20/5/5
f 36/28/26 37/29/27 20/5/5
f 37/29/27 19/8/8 20/5/5
f 37/29/27 8/23/23 7/9/9
f 3/30/28 30/21/21 33/22/22
f 3/30/28 4/31/29 30/21/21
f 40/32/30 39/33/31 3/30/28
f 40/32/30 38/34/32 36/28/26
f 35/27/25 41/35/33 40/32/30
f 44/36/34 42/37/35 43/38/36
f 45/39/37 43/38/36 10/6/6
f 10/6/6 2/40/38 46/41/39
f 5/42/40 46/43/39 2/44/38
f 2/44/38 6/45/41 5/42/40
f 47/46/42 6/45/41 1/47/43
f 5/42/40 6/45/41 48/48/44
f 48/48/44 24/13/13 5/42/40
f 16/49/45 44/36/34 45/39/37
f 50/50/46 14/2/2 41/35/33
f 51/51/47 14/2/2 26/15/15
f 13/1/1 26/15/15 14/2/2
f 50/50/46 49/3/3 14/2/2
f 13/1/1 49/3/3 52/52/48
f 52/52/48 22/18/18 13/1/1
f 9/14/14 29/53/49 21/11/11
f 48/48/44 6/45/41 55/54/50
f 6/45/41 47/46/42 55/54/50
f 47/46/42 18/25/10 17/24/24
f 17/24/24 34/55/51 55/54/50
f 53/56/52 55/54/50 34/55/51
f 54/57/53 28/19/19 29/53/49
f 27/16/16 21/11/11 29/53/49
f 16/58/45 23/12/12 22/18/18
f 45/59/37 23/12/12 16/58/45
f 3/30/28 33/22/22 38/34/32
f 4/31/29 3/30/28 39/33/31
f 37/29/27 36/28/26 38/34/32
f 51/51/47 25/17/17 30/21/21 4/31/29
f 1/47/43 6/45/41 2/44/38
f 21/11/11 22/18/18 23/12/12
f 8/23/23 37/29/27 38/34/32 33/22/22
f 28/19/19 30/21/21 29/53/49
f 31/20/20 32/60/54 8/23/23
f 8/23/23 34/55/51 7/26/9
f 17/24/24 7/26/9 34/55/51
f 18/10/10 12/61/55 19/8/8
f 12/61/55 10/6/6 19/8/8
f 15/4/4 11/7/7 20/5/5
f 37/29/27 7/9/9 19/8/8
f 42/37/35 35/27/25 11/7/7 43/38/36
f 33/22/22 30/21/21 31/20/20
f 41/35/33 39/33/31 40/32/30
f 40/32/30 36/28/26 35/27/25
f 42/37/35 50/50/46 35/27/25
f 36/28/26 20/5/5 35/27/25
f 1/47/43 2/44/38 12/62/55 47/46/42
f 45/39/37 10/6/6 46/41/39
f 12/61/55 2/40/38 10/6/6
f 24/63/13 23/64/12 45/39/37 46/41/39
f 24/13/13 46/43/39 5/42/40
f 44/36/34 49/3/3 50/50/46 42/37/35
f 44/36/34 43/38/36 45/39/37
f 54/57/53 9/14/14 48/48/44 53/56/52
f 41/35/33 14/2/2 39/33/31
f 41/35/33 35/27/25 50/50/46
f 51/51/47 4/31/29 39/33/31
f 51/51/47 39/33/31 14/2/2
f 49/3/3 44/36/34 52/52/48
f 22/18/18 26/15/15 13/1/1
f 22/18/18 52/52/48 16/58/45
f 21/11/11 27/16/16 22/18/18
f 53/56/52 48/48/44 55/54/50
f 55/54/50 47/46/42 17/24/24
f 34/55/51 56/65/56 53/56/52
f 56/65/56 54/57/53 53/56/52
f 54/57/53 56/65/56 28/19/19
f 54/57/53 29/53/49 9/14/14
f 25/17/17 27/16/16 29/53/49
f 29/53/49 30/21/21 25/17/17
f 28/19/19 56/65/56 31/20/20
f 56/65/56 8/23/23 32/60/54
f 8/23/23 56/65/56 34/55/51
f 56/65/56 32/60/54 31/20/20
f 52/52/48 44/36/34 16/58/45
f 48/48/44 9/14/14 24/13/13
f 47/46/42 12/62/55 18/25/10
f 43/38/36 11/7/7 10/6/6
f 40/32/30 3/30/28 38/34/32
f 51/51/47 26/15/15 25/17/17
