# Blender v2.79 (sub 0) OBJ File: 'Rocks_River_Rough_Medium.blend'
# www.blender.org
mtllib 2.mtl
o Rock_River_Rough_Medium005_Rock_80_low_uv:Group60135.006
v 1.034284 0.092475 -2.150498
v 1.248815 0.036053 -2.078790
v 0.998774 0.002873 -2.292448
v 0.986564 0.018361 -2.276265
v 1.023049 0.089467 -2.126998
v 0.957354 0.054307 -2.248630
v 0.965870 0.022561 -2.261409
v 0.935774 0.073376 -2.209722
v 1.272684 0.021802 -2.357780
v 1.259457 0.006801 -2.347349
v 1.027759 0.081510 -2.325382
v 1.072125 0.083068 -2.326063
v 1.067235 0.015563 -2.084865
v 0.967438 0.029396 -2.171839
v 1.033858 0.064418 -2.152213
v 0.961643 0.162258 -2.112607
v 1.014063 0.186194 -2.106587
v 0.999866 0.005224 -2.213052
v 1.123458 0.153365 -2.194891
v 1.241543 0.098298 -2.151126
v 1.260772 0.077738 -2.118603
v 0.981821 0.129780 -2.048448
v 1.018470 0.113048 -2.022034
v 0.928614 0.090061 -2.127666
v 0.969977 0.109131 -2.056481
v 0.947867 0.137166 -2.111864
v 0.975141 0.131174 -2.090075
v 0.987405 0.113029 -2.104639
v 1.047838 0.010862 -2.330888
v 1.141845 0.031771 -2.366272
v 1.019427 0.060855 -2.307467
v 1.105683 0.127274 -2.040545
v 1.049819 0.087774 -2.045450
v 1.076510 0.135256 -2.040373
v 1.052539 0.014552 -2.149723
v 1.137460 0.001912 -2.350366
v 0.915264 0.077462 -2.162894
v 0.923721 0.121333 -2.128952
v 0.924376 0.135850 -2.163388
v 0.965637 0.150093 -2.161104
v 1.074598 0.187101 -2.163888
v 1.014488 0.177280 -2.085723
v 1.081973 0.157497 -2.117429
v 1.184852 0.071468 -2.073463
v 1.207498 0.025908 -2.089687
v 1.270996 0.028601 -2.140212
v 1.235537 0.004043 -2.103973
v 1.242473 0.005359 -2.202755
v 1.014202 0.114058 -2.331730
v 1.100249 0.126025 -2.343547
v 1.238185 0.008595 -2.361914
v 1.301098 0.072677 -2.192152
v 1.284049 0.087371 -2.175706
v 1.299416 0.033503 -2.273765
v 1.266315 0.055187 -2.355630
v 1.246690 0.085689 -2.341305
v 1.168067 0.127013 -2.324718
v 1.084169 0.145652 -2.214966
v 0.959676 0.113413 -2.202214
v 0.987318 0.111575 -2.244175
v 1.085792 0.144729 -2.328754
v 0.997316 0.087392 -2.259306
v 0.964400 0.076563 -2.222042
v 1.177703 0.010334 -2.092179
v 1.004068 0.015919 -2.167759
v 0.981548 0.082913 -2.168149
v 1.004902 0.089494 -2.045289
v 1.038465 0.053140 -2.106885
v 1.015108 0.134705 -2.069442
vt 0.171410 0.263107
vt 0.206456 0.256153
vt 0.142157 0.290862
vt 0.434162 0.457918
vt 0.572548 0.316789
vt 0.550821 0.507943
vt 0.492257 0.162467
vt 0.521260 0.087694
vt 0.533389 0.158756
vt 0.179441 0.496867
vt 0.173145 0.606109
vt 0.100011 0.428787
vt 0.557093 0.260001
vt 0.539671 0.195122
vt 0.152068 0.178690
vt 0.130368 0.627395
vt 0.157984 0.053234
vt 0.118828 0.321075
vt 0.236648 0.135970
vt 0.269825 0.194111
vt 0.332408 0.094089
vt 0.346740 0.211121
vt 0.320449 0.163612
vt 0.369866 0.178339
vt 0.405322 0.183639
vt 0.363146 0.248494
vt 0.410190 0.220566
vt 0.482026 0.340359
vt 0.666824 0.449125
vt 0.682907 0.400121
vt 0.701090 0.456139
vt 0.668617 0.517845
vt 0.723249 0.570631
vt 0.220657 0.431128
vt 0.181414 0.433701
vt 0.168051 0.389541
vt 0.256268 0.535106
vt 0.338587 0.802903
vt 0.606069 0.592260
vt 0.591932 0.696219
vt 0.429904 0.711674
vt 0.337022 0.597245
vt 0.274046 0.491454
vt 0.371219 0.417760
vt 0.415990 0.365660
vt 0.297879 0.264450
vt 0.258443 0.337469
vt 0.441028 0.765653
vt 0.449476 0.808708
vt 0.222036 0.328899
vt 0.245821 0.254400
vt 0.687228 0.802388
vt 0.945174 0.613689
vt 0.781647 0.172479
vt 0.709417 0.351734
vt 0.695067 0.199664
vt 0.192841 0.112726
vt 0.310222 0.024268
vt 0.366642 0.147238
vt 0.488051 0.225698
vt 0.450789 0.170188
vt 0.491581 0.185637
vt 0.585278 0.180371
vt 0.628955 0.114606
vt 0.456740 0.249015
vt 0.437631 0.268043
vt 0.629990 0.379678
vt 0.447273 0.124836
vt 0.438764 0.026624
vt 0.621498 0.066223
vt 0.616436 0.484786
vt 0.620522 0.806269
vt 0.473118 0.803437
vt 0.582763 0.558339
vt 0.385975 0.826937
vn -0.6625 -0.5391 -0.5200
vn -0.7654 0.2969 -0.5710
vn -0.7667 -0.4382 -0.4692
vn 0.3305 0.9409 -0.0737
vn 0.3644 0.4061 0.8381
vn 0.3965 0.8904 0.2234
vn -0.9118 -0.3152 0.2632
vn -0.5604 -0.8241 0.0825
vn -0.3331 -0.8448 0.4188
vn -0.3251 0.0055 -0.9457
vn -0.1136 -0.0460 -0.9925
vn -0.3787 -0.4598 -0.8032
vn 0.1096 0.8057 0.5821
vn -0.2058 0.0257 0.9782
vn -0.3308 -0.9394 0.0902
vn -0.0899 -0.8451 -0.5270
vn -0.3609 -0.8864 0.2898
vn -0.5885 -0.6787 -0.4393
vn -0.5989 -0.5096 0.6178
vn -0.9427 -0.0631 -0.3277
vn -0.2184 -0.7239 0.6544
vn -0.7141 0.6612 -0.2299
vn -0.7578 -0.6521 0.0222
vn -0.8032 0.2340 0.5478
vn -0.7013 0.2324 0.6739
vn -0.3520 0.8441 -0.4045
vn -0.6492 0.7042 0.2875
vn 0.4030 0.8525 0.3329
vn 0.5322 -0.1001 0.8407
vn 0.0069 -0.4351 0.9004
vn 0.3036 -0.8679 0.3933
vn 0.8149 -0.5403 0.2098
vn 0.2359 -0.9717 0.0157
vn -0.6517 0.3171 -0.6890
vn -0.3390 -0.2949 -0.8934
vn -0.6854 -0.0141 -0.7280
vn -0.0636 0.3933 -0.9172
vn 0.0882 -0.6301 -0.7715
vn 0.9711 0.2314 0.0584
vn 0.9481 -0.3003 -0.1045
vn 0.4516 0.7468 -0.4882
vn 0.3096 0.8737 -0.3751
vn -0.0910 0.8772 -0.4713
vn -0.1888 0.9333 -0.3054
vn 0.1927 0.9758 -0.1037
vn -0.4457 0.6006 -0.6638
vn -0.6835 0.6089 -0.4027
vn 0.5323 0.3812 -0.7559
vn 0.6651 -0.3210 -0.6742
vn -0.8280 0.2025 -0.5228
vn -0.6414 0.4841 -0.5952
vn 0.0007 -0.7829 0.6222
vn -0.3775 -0.7606 0.5282
vn -0.2907 -0.6937 0.6590
vn -0.7520 -0.2343 0.6162
vn -0.4851 -0.5237 0.7003
vn -0.0796 0.8767 0.4745
vn -0.8755 0.0099 0.4832
vn -0.5312 0.6455 0.5488
vn -0.0689 -0.6959 0.7148
vn -0.9123 -0.3632 0.1893
vn 0.0155 0.6706 0.7417
vn -0.0554 0.9875 0.1478
vn 0.3998 0.2001 0.8945
vn -0.0474 -0.5811 0.8124
vn -0.5902 -0.7133 0.3781
vn 0.6400 0.5530 0.5335
vn 0.2865 -0.9357 -0.2059
vn 0.6259 0.7574 0.1861
usemtl Rock_River_Rough_Medium005
s 1
f 7/1/1 6/2/2 4/3/3
f 19/4/4 32/5/5 20/6/6
f 25/7/7 5/8/8 67/9/9
f 12/10/10 30/11/11 29/12/12
f 34/13/13 23/14/14 32/5/5
f 18/15/15 36/16/16 35/17/17
f 3/18/18 36/16/16 18/15/15
f 7/1/1 14/19/19 8/20/20
f 66/21/21 8/20/20 14/19/19
f 39/22/22 37/23/23 38/24/24
f 38/24/24 26/25/25 39/22/22
f 40/26/26 39/22/22 26/25/25
f 16/27/27 40/26/26 26/25/25
f 32/5/5 19/4/4 43/28/28
f 2/29/29 45/30/30 47/31/31
f 2/29/29 47/31/31 46/32/32
f 47/31/31 48/33/33 46/32/32
f 29/12/12 30/11/11 36/16/16
f 49/34/34 11/35/35 31/36/36
f 50/37/37 30/11/11 12/10/10
f 50/37/37 51/38/38 30/11/11
f 51/38/38 36/16/16 30/11/11
f 52/39/39 46/32/32 54/40/40
f 2/29/29 46/32/32 52/39/39
f 19/4/4 20/6/6 56/41/41
f 57/42/42 61/43/43 19/4/4
f 58/44/44 19/4/4 61/43/43
f 19/4/4 58/44/44 41/45/45
f 40/26/26 59/46/46 39/22/22
f 59/46/46 58/44/44 60/47/47
f 61/43/43 60/47/47 58/44/44
f 50/37/37 61/43/43 57/42/42
f 57/42/42 56/41/41 50/37/37
f 56/41/41 55/48/48 50/37/37
f 9/49/49 51/38/38 55/48/48
f 60/47/47 62/50/50 63/51/51
f 62/50/50 31/36/36 6/2/2
f 60/47/47 31/36/36 62/50/50
f 51/52/38 48/33/33 47/31/31
f 47/31/31 36/53/16 51/52/38
f 35/54/17 36/53/16 47/31/31
f 64/55/52 13/56/53 35/54/17
f 65/57/54 18/15/15 35/17/17
f 65/57/54 14/19/19 18/15/15
f 65/57/54 15/58/55 14/19/19
f 5/8/8 24/59/56 37/23/23
f 69/60/57 27/61/58 22/62/59
f 25/7/7 23/14/14 22/62/59
f 67/9/9 5/8/8 33/63/60
f 68/64/61 13/56/53 33/63/60
f 35/54/17 13/56/53 68/64/61
f 34/13/13 22/62/59 23/14/14
f 22/62/59 34/13/13 69/60/57
f 42/65/62 27/61/58 69/60/57
f 42/65/62 17/66/63 16/27/27
f 16/27/27 26/25/25 42/65/62
f 69/60/57 43/28/28 42/65/62
f 44/67/64 32/5/5 45/30/30
f 45/30/30 2/29/29 44/67/64
f 28/68/65 38/24/24 24/59/56
f 66/21/21 1/69/66 5/8/8
f 15/58/55 1/69/66 66/21/21
f 65/57/54 35/17/17 15/58/55
f 1/69/66 15/70/55 68/64/61 5/8/8
f 5/8/8 27/61/58 28/68/65
f 8/20/20 6/2/2 7/1/1
f 12/10/10 29/12/12 31/36/36 11/35/35
f 4/3/3 3/18/18 18/15/15
f 26/25/25 28/68/65 27/61/58
f 40/26/26 16/27/27 17/66/63 41/45/45
f 32/5/5 23/14/14 33/63/60
f 18/15/15 14/19/19 4/3/3
f 14/19/19 7/1/1 4/3/3
f 8/20/20 66/21/21 37/23/23
f 37/23/23 24/59/56 38/24/24
f 42/65/62 43/28/28 41/45/45 17/66/63
f 21/71/67 20/6/6 44/67/64 2/29/29
f 43/28/28 19/4/4 41/45/45
f 32/5/5 43/28/28 34/13/13
f 29/12/12 3/18/18 4/3/3 31/36/36
f 48/33/33 54/40/40 46/32/32
f 48/33/33 51/52/38 10/72/68
f 36/16/16 3/18/18 29/12/12
f 12/10/10 11/35/35 49/34/34 50/37/37
f 4/3/3 6/2/2 31/36/36
f 48/33/33 10/72/68 9/73/49 54/40/40
f 52/39/39 55/48/48 56/41/41 53/74/69
f 52/39/39 53/74/69 21/71/67
f 52/39/39 21/71/67 2/29/29
f 53/74/69 20/6/6 21/71/67
f 52/39/39 54/40/40 55/48/48
f 54/40/40 9/49/49 55/48/48
f 56/41/41 20/6/6 53/74/69
f 41/45/45 58/44/44 59/46/46 40/26/26
f 56/41/41 57/42/42 19/4/4
f 6/2/2 8/20/20 63/51/51 62/50/50
f 51/38/38 9/49/49 10/75/68
f 50/37/37 49/34/34 61/43/43
f 61/43/43 49/34/34 60/47/47
f 60/47/47 63/51/51 59/46/46
f 63/51/51 8/20/20 59/46/46
f 8/20/20 39/22/22 59/46/46
f 8/20/20 37/23/23 39/22/22
f 45/30/30 32/5/5 13/56/53 64/55/52
f 60/47/47 49/34/34 31/36/36
f 50/37/37 55/48/48 51/38/38
f 47/31/31 64/55/52 35/54/17
f 15/58/55 66/21/21 14/19/19
f 66/21/21 5/8/8 37/23/23
f 5/8/8 28/68/65 24/59/56
f 25/7/7 22/62/59 27/61/58
f 25/7/7 67/9/9 23/14/14
f 5/8/8 68/64/61 33/63/60
f 67/9/9 33/63/60 23/14/14
f 42/65/62 26/25/25 27/61/58
f 69/60/57 34/13/13 43/28/28
f 32/5/5 44/67/64 20/6/6
f 64/55/52 47/31/31 45/30/30
f 13/56/53 32/5/5 33/63/60
f 35/54/17 68/64/61 15/70/55
f 38/24/24 28/68/65 26/25/25
f 25/7/7 27/61/58 5/8/8
